<?xml version="1.0" encoding="UTF-8"?>
<svg id="Calque_1" data-name="Calque 1" xmlns="http://www.w3.org/2000/svg" viewBox="0 0 54 54">
  <defs>
    <style>
      .cls-1 {
        fill: #f6f7f9;
      }

      .cls-1, .cls-2 {
        stroke-width: 0px;
      }

      .cls-2 {
        fill: #ef7c02;
      }
    </style>
  </defs>
  <path class="cls-1" d="m49.2,27c0,12.26-9.94,22.2-22.2,22.2S4.8,39.26,4.8,27,14.74,4.8,27,4.8s22.2,9.94,22.2,22.2Z"/>
  <g>
    <path class="cls-2" d="m33.95,27.8c-.17,1-.32,2-.51,3-.14.76-.62,1.26-1.3,1.62-2.88,1.54-6.86,1.12-9.49-1.11-.67-.57-1.26-1.28-1.73-2.02-.54-.85-.12-1.78.06-2.67.68-3.29,2.88-5.29,5.76-6.64,1.23-.58,2.64-.55,3.82.56,2.1,1.97,3.28,4.51,3.38,7.27Z"/>
    <path class="cls-2" d="m19.49,18.44c-2.66,3.85-3.31,7.84-.74,11.97,2.62,4.21,6.48,5.73,11.33,4.95-3.19,2.09-8.2,2.33-12.23-2.13-4.11-4.56-3.43-10.49,1.64-14.79Z"/>
    <path class="cls-2" d="m33.8,20.41c2.47,1.62,4.19,3.74,4.61,6.77.32,2.28.03,4.48-.94,6.54-1.82,3.89-5.04,5.77-9.19,5.35-1.04-.11-2.07-.38-3.1-.59-.2-.04-.39-.14-.6-.27,4.81.4,8.56-1.15,10.76-5.66,2.14-4.39,1.33-8.38-1.54-12.14Z"/>
    <path class="cls-2" d="m38.82,23.85c-2.02-4.22-5.18-6.69-9.97-6.47-4.69.22-7.79,2.79-9.59,7.14-.13-1.01.24-2.69.81-3.91,1.41-3.05,3.91-4.69,7.08-5.44,2.45-.58,4.8-.31,7,.95,1.79,1.02,2.96,2.6,3.72,4.47.38.94.65,1.92.96,2.89.04.12,0,.26,0,.38Z"/>
  </g>
</svg>