<?xml version="1.0" encoding="UTF-8"?>
<svg id="Calque_1" data-name="Calque 1" xmlns="http://www.w3.org/2000/svg" viewBox="0 0 45.03 45.03"><metadata><c2pa:manifest xmlns:c2pa="http://c2pa.org/manifest">AAA0RWp1bWIAAAAeanVtZGMycGEAEQAQgAAAqgA4m3EDYzJwYQAAADQfanVtYgAAAEdqdW1kYzJtYQARABCAAACqADibcQN1cm46dXVpZDpjMDZlMDZiZi1mMTk0LTRkMTctOTQ3MS0yYjJkOGRiMjNkYjMAAAABtGp1bWIAAAApanVtZGMyYXMAEQAQgAAAqgA4m3EDYzJwYS5hc3NlcnRpb25zAAAAANdqdW1iAAAAJmp1bWRjYm9yABEAEIAAAKoAOJtxA2MycGEuYWN0aW9ucwAAAACpY2JvcqFnYWN0aW9uc4GjZmFjdGlvbmtjMnBhLmVkaXRlZG1zb2Z0d2FyZUFnZW50bUFkb2JlIEZpcmVmbHlxZGlnaXRhbFNvdXJjZVR5cGV4U2h0dHA6Ly9jdi5pcHRjLm9yZy9uZXdzY29kZXMvZGlnaXRhbHNvdXJjZXR5cGUvY29tcG9zaXRlV2l0aFRyYWluZWRBbGdvcml0aG1pY01lZGlhAAAArGp1bWIAAAAoanVtZGNib3IAEQAQgAAAqgA4m3EDYzJwYS5oYXNoLmRhdGEAAAAAfGNib3KlamV4Y2x1c2lvbnOBomVzdGFydBjLZmxlbmd0aBlFtGRuYW1lbmp1bWJmIG1hbmlmZXN0Y2FsZ2ZzaGEyNTZkaGFzaFggtKB52lF7gb4gyYWZiaEhpH68dkyICoKVqSWONXHRZCtjcGFkSQAAAAAAAAAAAAAAAgxqdW1iAAAAJGp1bWRjMmNsABEAEIAAAKoAOJtxA2MycGEuY2xhaW0AAAAB4GNib3KoaGRjOnRpdGxlb0dlbmVyYXRlZCBJbWFnZWlkYzpmb3JtYXRtaW1hZ2Uvc3ZnK3htbGppbnN0YW5jZUlEeCx4bXA6aWlkOmYxMzZjMjU2LTYxNzktNDdmNS1hZGIxLTFmMzc1MmQ1ODgyN29jbGFpbV9nZW5lcmF0b3J4N0Fkb2JlX0lsbHVzdHJhdG9yLzI5LjUgYWRvYmVfYzJwYS8wLjEyLjIgYzJwYS1ycy8wLjMyLjV0Y2xhaW1fZ2VuZXJhdG9yX2luZm+Bv2RuYW1lcUFkb2JlIElsbHVzdHJhdG9yZ3ZlcnNpb25kMjkuNf9pc2lnbmF0dXJleBlzZWxmI2p1bWJmPWMycGEuc2lnbmF0dXJlamFzc2VydGlvbnOComN1cmx4J3NlbGYjanVtYmY9YzJwYS5hc3NlcnRpb25zL2MycGEuYWN0aW9uc2RoYXNoWCBKacG9/6jeQTB4viTtzPgxOsHRZJU0VnGgDWsGszfUr6JjdXJseClzZWxmI2p1bWJmPWMycGEuYXNzZXJ0aW9ucy9jMnBhLmhhc2guZGF0YWRoYXNoWCAspB8SyyXbMrae/5Rw9OHyY70WoMpqm2f8OO3kqZ1w6mNhbGdmc2hhMjU2AAAwEGp1bWIAAAAoanVtZGMyY3MAEQAQgAAAqgA4m3EDYzJwYS5zaWduYXR1cmUAAAAv4GNib3LShFkM76IBOCQYIYJZBj0wggY5MIIEIaADAgECAhAVjf8nrCPSuCVLTmM3Hh2eMA0GCSqGSIb3DQEBCwUAMHUxCzAJBgNVBAYTAlVTMSMwIQYDVQQKExpBZG9iZSBTeXN0ZW1zIEluY29ycG9yYXRlZDEdMBsGA1UECxMUQWRvYmUgVHJ1c3QgU2VydmljZXMxIjAgBgNVBAMTGUFkb2JlIFByb2R1Y3QgU2VydmljZXMgRzMwHhcNMjQxMDE1MDAwMDAwWhcNMjUxMDE1MjM1OTU5WjCBqzETMBEGA1UEAwwKQWRvYmUgQzJQQTEoMCYGA1UECwwfQ29udGVudCBBdXRoZW50aWNpdHkgSW5pdGlhdGl2ZTETMBEGA1UECgwKQWRvYmUgSW5jLjERMA8GA1UEBwwIU2FuIEpvc2UxEzARBgNVBAgMCkNhbGlmb3JuaWExCzAJBgNVBAYTAlVTMSAwHgYJKoZIhvcNAQkBFhFjYWktb3BzQGFkb2JlLmNvbTCCASIwDQYJKoZIhvcNAQEBBQADggEPADCCAQoCggEBAMMQwYHQfT1y6TFz8OaDYGJBVgzz9Wkn7YfU2TyDTrTkJYadb+IfoTMWVhY5Gd0SUbqEga7EkmAWhH4gzCorIv7DsbhRygVf/5da790q464sQDVyJaoxnSGMnWjGhWv+aLxc/5uPklM9HHGM6sPr0gM7kckhp6YJvBpo/khCXC/xiB86lPW1MtzbIs2NqGNvMo99q25DqngA0jOdTqiCSpaBARRXsczLp86VPitrC6oXqEfBSTGkdHxl2v4Kkc4ZIgRYcFISz0vbOvkwp89PVGTJV23Rv4hSo91DxVA46odMLRYHM9uA61JWlnopbSh6LspgR7oq875jhtFbUj3qcTkCAwEAAaOCAYwwggGIMAwGA1UdEwEB/wQCMAAwDgYDVR0PAQH/BAQDAgeAMB4GA1UdJQQXMBUGCSqGSIb3LwEBDAYIKwYBBQUHAwQwgY4GA1UdIASBhjCBgzCBgAYJKoZIhvcvAQIDMHMwcQYIKwYBBQUHAgIwZQxjWW91IGFyZSBub3QgcGVybWl0dGVkIHRvIHVzZSB0aGlzIExpY2Vuc2UgQ2VydGlmaWNhdGUgZXhjZXB0IGFzIHBlcm1pdHRlZCBieSB0aGUgbGljZW5zZSBhZ3JlZW1lbnQuMF0GA1UdHwRWMFQwUqBQoE6GTGh0dHA6Ly9wa2ktY3JsLnN5bWF1dGguY29tL2NhXzdhNWMzYTBjNzMxMTc0MDZhZGQxOTMxMmJjMWJjMjNmL0xhdGVzdENSTC5jcmwwNwYIKwYBBQUHAQEEKzApMCcGCCsGAQUFBzABhhtodHRwOi8vcGtpLW9jc3Auc3ltYXV0aC5jb20wHwYDVR0jBBgwFoAUVyl6Mk3M/uQ1TsAfJHPOc1Or32owDQYJKoZIhvcNAQELBQADggIBAKq5ehS0PnPS2Gn9IoMk4BKzS/V5ponok96IShXrydwTe5FpGQ9c521cN151+bYEGiqvgIkgpXTcWBCqlPkavS69uhhoJQUgNLPw7NpMPti5Z05qIwBwh9wr1UW4Rhx62rIZp34MJhdU0pGlpOzcRIW7fcEKIhDJC0kHjOEuArvte+hcxHcvs85A5EVqnkjkDv6htlkbaP7yKt9BAn+r+hbWsySNQliKoQSuaCYqEjWy7AlSYWq91HGvQ9dbo3mVuJNozwrJ864k5halX7Xd5Nkl1EIO8EHEHF3ygSLVmbfM7Z9CGKGcyWtcfZfXb1ygCbzbA6M+Lg3q0vM/a8y7BEL8y9cj206ePv+pk0wFrKGg7ZpGYJt1/rH3z1918zBZn8yB4mH1I2uZyitm7OD+9bYrf9VPxQ9sXZac2UrqUagjBs/lE3lyPCKzeWUf/hfK0rJkQErY54IM/8A7nMHA5SW2OP0SqtwawIuC2pizCH8KP3Wy+eUw5SDnexwn5koGm3NVjtCo4ty1v1WZz/VRvFolBvlqrTdTkCAGZhVDlnV0Bi2oPiNTmmdQVyQzbCYl3INkxjQUhD6OOAJH5/TMxRisgeVLqzDeDR9KpWpoa4SoldPm+9xY8d99D/368QZs8eTaQEITSpLMfheM9UvAMtaNkwSJJHgBWw88vH/xcbsrWQalMIIGoTCCBImgAwIBAgIQDKi2VHuJ5tIGiXXNi5uJ4jANBgkqhkiG9w0BAQsFADBsMQswCQYDVQQGEwJVUzEjMCEGA1UEChMaQWRvYmUgU3lzdGVtcyBJbmNvcnBvcmF0ZWQxHTAbBgNVBAsTFEFkb2JlIFRydXN0IFNlcnZpY2VzMRkwFwYDVQQDExBBZG9iZSBSb290IENBIEcyMB4XDTE2MTEyOTAwMDAwMFoXDTQxMTEyODIzNTk1OVowdTELMAkGA1UEBhMCVVMxIzAhBgNVBAoTGkFkb2JlIFN5c3RlbXMgSW5jb3Jwb3JhdGVkMR0wGwYDVQQLExRBZG9iZSBUcnVzdCBTZXJ2aWNlczEiMCAGA1UEAxMZQWRvYmUgUHJvZHVjdCBTZXJ2aWNlcyBHMzCCAiIwDQYJKoZIhvcNAQEBBQADggIPADCCAgoCggIBALcfLr29CbNcSGz+DIOubAHqUXglpIA+iaexsohk2vaJdoH5+R3zlfx4mI2Yjs/k7hxVPg1zWnfOsRKoFXhlTJbyBxnvxB3CgcbxA13ZU1wecyBJH5dP0hp+yer01/DDcm30oveXkA1DmfX4wmqvjwRY0uWX3jZs4v8kfjLANIyiqFmq0kQhRRQaVBUFnwIC8lzssTp10DkLnY8TY+lrtF9CAdd/iB9dVnCnFhFlzOI+I4eoS8tvQndxKFRt6MXFXpzBfxDIA9rV48eDVG0zQdf4PfjEejcOTIaeZP4N2rTRMQMYbboAvk90g0oUhCX7NqrookVB7V90YTnCtbNTiYE+bNrPcRsuf7sVaXACGitiogyV1t8cTfJ1z5pNTUlbv5sbX2qa+E70iW4a1O1AN6oUGPZ+Dp9rGx9V9U8Puy03pPCggOWQ4IThET4iKfybfPd6qL9WxOayZGoHFYNFqo4fPTYQmgQPFckbd6L5RsginTVdlC925+b3RbE5O6qpqfZmpM9f0rlV2MSH+i+vvEVzmrV1mj5JrnLixNUzznj+0tTeSU6BQrPNJdg9hLcaEFxgkePCv3E1Eec1f30PoXSDs6KNJxZ++2PGHXdpO/8fQRO/KZqHjJ8OlV2H1wrlhII+qe46Wy6MUDKFjAlc5YO9llTYSRZUsOGg/H3Ons3hAgMBAAGjggE0MIIBMDASBgNVHRMBAf8ECDAGAQH/AgEAMDUGA1UdHwQuMCwwKqAooCaGJGh0dHA6Ly9jcmwuYWRvYmUuY29tL2Fkb2Jlcm9vdGcyLmNybDAOBgNVHQ8BAf8EBAMCAQYwFAYDVR0lBA0wCwYJKoZIhvcvAQEHMFcGA1UdIARQME4wTAYJKoZIhvcvAQIDMD8wPQYIKwYBBQUHAgEWMWh0dHBzOi8vd3d3LmFkb2JlLmNvbS9taXNjL3BraS9wcm9kX3N2Y2VfY3BzLmh0bWwwJAYDVR0RBB0wG6QZMBcxFTATBgNVBAMTDFNZTUMtNDA5Ni0zMzAdBgNVHQ4EFgQUVyl6Mk3M/uQ1TsAfJHPOc1Or32owHwYDVR0jBBgwFoAUphzhbVQkTKiPSHK/bqmM1eTsMdQwDQYJKoZIhvcNAQELBQADggIBAHHO5QeMptwt3MjgO2VeAJKBleuVICSvn2k4Xcl88bjapU0AZTslwRhcnr5Zt9wbBjtZgyX6M7si8k9vuyFcVhb1ucmDFfuUtTXgoTFyGZws1jV57oiEEnZjw/NkxFQpJ3kKRRE+DQ8EsaPP8pH8Oh8fH4bis9MI4Y5FjF5it3TWVyLmFXG8pxy8iTswPr1lN7B9k9Iz7RaexTd/RmZ3uGBtGlTJZx4bR4cWl1Qor9kVaEeMNULbyh0Kc3zzm0edwpe+Ii0rRlRSj8Ai2EUqWEReyer1Uv18VuC87zdm+lRCjnLyZjdy4acRUZd2GM1vncJ8LW7h1uliZZo332y5tTMSxRpRveWgs99V/MM6mDbL2/fuQF3L/C5evbS15jtTrbGP98CCzVBKeFS2UxN8Kpt5/ITJwpWYoismQkuy+BNJgpW8fgUUjB93laOo4L3uNf3ytxUDOEAjSJKRrOxY4y8vqbQvicslqnH7zkaxVfxjoAeYQ/huYISXCKXooA/5R7AkWLDmubBXakRIcCFi5klrTcHy2XSd3ZAnO8kaZt4GpeqkX05GKcUzccSsrym5GiQ6MUfb7Vqwt4ja0HfVb8Qt017bs6B26rpnqoHAKnn1hfburJ0OEPRZF83riQKzbkrzyIYAY1bYIB9MNL5v5ZgkGIgv2NdhngsX4GJS9927o2ZzaWdUc3ShaXRzdFRva2Vuc4GhY3ZhbFkOODCCDjQwAwIBADCCDisGCSqGSIb3DQEHAqCCDhwwgg4YAgEDMQ8wDQYJYIZIAWUDBAIBBQAwgYEGCyqGSIb3DQEJEAEEoHIEcDBuAgEBBglghkgBhv1sBwEwMTANBglghkgBZQMEAgEFAAQgK4og6581cotXwKOVrs3oOAhRj7WKcgkMHGn/yKZnNGQCECai/eDR3kviM04n170ce0gYDzIwMjUwNjE4MTEzMzAwWgIIezXCPwh33KKgggvAMIIFCjCCAvKgAwIBAgIQDAsvx3p4z7rtZVZUwZokAzANBgkqhkiG9w0BAQsFADBjMQswCQYDVQQGEwJVUzEXMBUGA1UEChMORGlnaUNlcnQsIEluYy4xOzA5BgNVBAMTMkRpZ2lDZXJ0IFRydXN0ZWQgRzQgUlNBNDA5NiBTSEEyNTYgVGltZVN0YW1waW5nIENBMB4XDTI0MTEyMDAwMDAwMFoXDTM2MDIxOTIzNTk1OVowWzELMAkGA1UEBhMCVVMxETAPBgNVBAoTCERpZ2lDZXJ0MTkwNwYDVQQDEzBFQ0MyNTZfU0hBMjU2X1RpbWVzdGFtcF9SZXNwb25kZXJfQWRvYmVfTk9WXzIwMjQwWTATBgcqhkjOPQIBBggqhkjOPQMBBwNCAATQ/B6F+IGYpiqQQLxOfqkUmeTmSRWZzxSCtwM82siW/SbXazktRyEWmwIVs+8PJjhV9C4fUJ23IGRxsfzJM8leo4IBizCCAYcwDgYDVR0PAQH/BAQDAgeAMAwGA1UdEwEB/wQCMAAwFgYDVR0lAQH/BAwwCgYIKwYBBQUHAwgwIAYDVR0gBBkwFzAIBgZngQwBBAIwCwYJYIZIAYb9bAcBMB8GA1UdIwQYMBaAFLoW2W1NhS9zKXaaL3WMaiCPnshvMB0GA1UdDgQWBBTs0RxvfOegTeQxP4cACNSt1H02uzBaBgNVHR8EUzBRME+gTaBLhklodHRwOi8vY3JsMy5kaWdpY2VydC5jb20vRGlnaUNlcnRUcnVzdGVkRzRSU0E0MDk2U0hBMjU2VGltZVN0YW1waW5nQ0EuY3JsMIGQBggrBgEFBQcBAQSBgzCBgDAkBggrBgEFBQcwAYYYaHR0cDovL29jc3AuZGlnaWNlcnQuY29tMFgGCCsGAQUFBzAChkxodHRwOi8vY2FjZXJ0cy5kaWdpY2VydC5jb20vRGlnaUNlcnRUcnVzdGVkRzRSU0E0MDk2U0hBMjU2VGltZVN0YW1waW5nQ0EuY3J0MA0GCSqGSIb3DQEBCwUAA4ICAQCi7MEg8nkvLauLI7cAj21DgnMErh0mntCt4c4tsW9yJQZdZv1n8E1dueayb6IiZ8mYambImrTeuVKwGqUSITZTiVhtFRP3zRD9DpFk+Ex4P010IStH/eD1lgK6bVfaY0gvzcIRQP3CwIzqBZAE81c5QINjPs81cvJLOFKd/cX7zOhoQvrziNDy15UNT5fuURe2fioANQsRNYOmVXAdg2TK7OktYD+EH/D8gWr7nHQhRJMuD54GNjiZnNPnYXz6F3j7Bu2aVlirvQGAAsrW27Lqhg9ksW5+aL+g9/lyqRoMrWLSy4KDQaztPB+PKskecO1R7dbJbw7UBFVl+GbGaUc4x6HvVLNNL5hHjiLrf9A4zxe52e9ZqpSU7kDu7dsRXvm+uLLMXjHFSx/j0stIcxnQHwOL4A5RRuUH1Xw1wz2CiGvIHNcoYrkqfkb6TsKJU7ntDqNKFKZ349sBErTdXwVoId4zS/cV/A5rO1Kw5aNO/zUTCtQkbcMg88XGWqImaYmIHhIvHaE1nRdPWCa0QhrxvioeP45p4/zqd/JrVbNsoEuEBSRIPB3+ViLaoFlimZRUePzwKYvyTrd6g72mVtF4Prbbvy1kqCUmsZDMFqn33DR0N8Qzqkzir3bufNyI5k95Rq3NXcbfNYDx9qZ8gjCu4NHtSxAdJKswzb9gi6jyFTCCBq4wggSWoAMCAQICEAc2N7ckVHzYR6z9KGYqXlswDQYJKoZIhvcNAQELBQAwYjELMAkGA1UEBhMCVVMxFTATBgNVBAoTDERpZ2lDZXJ0IEluYzEZMBcGA1UECxMQd3d3LmRpZ2ljZXJ0LmNvbTEhMB8GA1UEAxMYRGlnaUNlcnQgVHJ1c3RlZCBSb290IEc0MB4XDTIyMDMyMzAwMDAwMFoXDTM3MDMyMjIzNTk1OVowYzELMAkGA1UEBhMCVVMxFzAVBgNVBAoTDkRpZ2lDZXJ0LCBJbmMuMTswOQYDVQQDEzJEaWdpQ2VydCBUcnVzdGVkIEc0IFJTQTQwOTYgU0hBMjU2IFRpbWVTdGFtcGluZyBDQTCCAiIwDQYJKoZIhvcNAQEBBQADggIPADCCAgoCggIBAMaGNQZJs8E9cklRVcclA8TykTepl1Gh1tKD0Z5Mom2gsMyD+Vr2EaFEFUJfpIjzaPp985yJC3+dH54PMx9QEwsmc5Zt+FeoAn39Q7SE2hHxc7Gz7iuAhIoiGN/r2j3EF3+rGSs+QtxnjupRPfDWVtTnKC3r07G1decfBmWNlCnT2exp39mQh0YAe9tEQYncfGpXevA3eZ9drMvohGS0UvJ2R/dhgxndX7RUCyFobjchu0CsX7LeSn3O9TkSZ+8OpWNs5KbFHc02DVzV5huowWR0QKfAcsW6Th+xtVhNef7Xj3OTrCw54qVI1vCwMROpVymWJy71h6aPTnYVVSZwmCZ/oBpHIEPjQ2OAe3VuJyWQmDo4EbP29p7mO1vsgd4iFNmCKseSv6De4z6ic/rnH1pslPJSlRErWHRAKKtzQ87fSqEcazjFKfPKqpZzQmiftkaznTqj1QPgv/CiPMpC3BhIfxQ0z9JMq++bPf4OuGQq+nUoJEHtQr8FnGZJUlD0UfM2SU2LINIsVzV5K6jzRWC8I41Y99xh3pP+OcD5sjClTNfpmEpYPtMDiP6zj9NeS3YSUZPJjAw7W4oiqMEmCPkUEBIDfV8ju2TjY+Cm4T72wnSyPx4JduyrXUZ14mCjWAkBKAAOhFTuzuldyF4wEr1GnrXTdrnSDmuZDNIztM2xAgMBAAGjggFdMIIBWTASBgNVHRMBAf8ECDAGAQH/AgEAMB0GA1UdDgQWBBS6FtltTYUvcyl2mi91jGogj57IbzAfBgNVHSMEGDAWgBTs1+OC0nFdZEzfLmc/57qYrhwPTzAOBgNVHQ8BAf8EBAMCAYYwEwYDVR0lBAwwCgYIKwYBBQUHAwgwdwYIKwYBBQUHAQEEazBpMCQGCCsGAQUFBzABhhhodHRwOi8vb2NzcC5kaWdpY2VydC5jb20wQQYIKwYBBQUHMAKGNWh0dHA6Ly9jYWNlcnRzLmRpZ2ljZXJ0LmNvbS9EaWdpQ2VydFRydXN0ZWRSb290RzQuY3J0MEMGA1UdHwQ8MDowOKA2oDSGMmh0dHA6Ly9jcmwzLmRpZ2ljZXJ0LmNvbS9EaWdpQ2VydFRydXN0ZWRSb290RzQuY3JsMCAGA1UdIAQZMBcwCAYGZ4EMAQQCMAsGCWCGSAGG/WwHATANBgkqhkiG9w0BAQsFAAOCAgEAfVmOwJO2b5ipRCIBfmbW2CFC4bAYLhBNE88wU86/GPvHUF3iSyn7cIoNqilp/GnBzx0H6T5gyNgL5Vxb122H+oQgJTQxZ822EpZvxFBMYh0MCIKoFr2pVs8Vc40BIiXOlWk/R3f7cnQU1/+rT4osequFzUNf7WC2qk+RZp4snuCKrOX9jLxkJodskr2dfNBwCnzvqLx1T7pa96kQsl3p/yhUifDVinF2ZdrM8HKjI/rAJ4JErpknG6skHibBt94q6/aesXmZgaNWhqsKRcnfxI2g55j7+6adcq/Ex8HBanHZxhOACcS2n82HhyS7T6NJuXdmkfFynOlLAlKnN36TU6w7HQhJD5TNOXrd/yVjmScsPT9rp/Fmw0HNT7ZAmyEhQNC3EyTN3B14OuSereU0cZLXJmvkOHOrpgFPvT87eK1MrfvElXvtCl8zOYdBeHo46Zzh3SP9HSjTx/no8Zhf+yvYfvJGnXUsHicsJttvFXseGYs2uJPU5vIXmVnKcPA3v5gA3yAWTyf7YGcWoWa63VXAOimGsJigK+2VQbc61RWYMbRiCQ8KvYHZE/6/pNHzV9m8BPqC3jLfBInwAM1dwvnQI38AC+R2AibZ8GV2QqYphwlHK+Z/GqSFD/yYlvZVVCsfgPrA8g4r5db7qS9EFUrnEw4d2zc4GqEr9u3WfPwxggG4MIIBtAIBATB3MGMxCzAJBgNVBAYTAlVTMRcwFQYDVQQKEw5EaWdpQ2VydCwgSW5jLjE7MDkGA1UEAxMyRGlnaUNlcnQgVHJ1c3RlZCBHNCBSU0E0MDk2IFNIQTI1NiBUaW1lU3RhbXBpbmcgQ0ECEAwLL8d6eM+67WVWVMGaJAMwDQYJYIZIAWUDBAIBBQCggdEwGgYJKoZIhvcNAQkDMQ0GCyqGSIb3DQEJEAEEMBwGCSqGSIb3DQEJBTEPFw0yNTA2MTgxMTMzMDBaMCsGCyqGSIb3DQEJEAIMMRwwGjAYMBYEFPcTAlRkG5zO0lEtYsW/nymEjPz4MC8GCSqGSIb3DQEJBDEiBCBdw4D+Bczr7JlaRV7jrI921aYC4x7S3gy1xtmtVp+JYzA3BgsqhkiG9w0BCRACLzEoMCYwJDAiBCC5eiZoHRjpuXxjPvhIOWRVdZeW2lBDRCyPjM3lJ+AAqTAKBggqhkjOPQQDAgRHMEUCIEYdQoWaJ5P/Kk3UjjsU4rfuiOnzG6bkNLFRH22slJF9AiEAxW5otmlkgtJxH2pg1Vz+FSY4JpFyx3ShprHx5jS4VmtlclZhbHOhaG9jc3BWYWxzgVkI2DCCCNQKAQCgggjNMIIIyQYJKwYBBQUHMAEBBIIIujCCCLYwgZ6iFgQUwInWh4c8r+kVkHt3cpwO637c0rQYDzIwMjUwNjE3MjEyNjA3WjBzMHEwSTAJBgUrDgMCGgUABBS733Mle9sjosdOiV3f/BGFqJuLAQQUVyl6Mk3M/uQ1TsAfJHPOc1Or32oCEBWN/yesI9K4JUtOYzceHZ6AABgPMjAyNTA2MTcyMTI2MDdaoBEYDzIwMjUwNjI0MjEyNjA3WjANBgkqhkiG9w0BAQsFAAOCAgEAj0WBJUa9WSGHScd26uy1wa1T9LAheBZ6uE2C/T7g2CTZIihxGupv7aCrpMmN0cG8IPO8TqxmY/glMtcID7EGCTz+Z2XEKZPmzAb+8Ph1DdfwKIKofLfUJ+E7590EREd2+eaa2Hte61rxxWrN/46B5/p8qUmBfcvAKfBHtrbjcfVVjh+NJkc9ReZz0MJmLsiSsd4nkFNRjiMcQpQ1ZEYwxPhJ60ryHD0bSO0YkptXP6zZFDh7K0HkyaBxXx4pMqqPjna658Rxyw9dmjlp8n32vnfxCGSel3aCYZ5nhiINqVOVRIwqPWYg3fRvK0JrD+IrZUw5bFOTIHWB4BGXyeH99R9oJor1Vn7lYbr2W81EIPr71Rfujf+lPrDFjl3O222+EyqesjT73ILZmztdnVkM87U7J3mccTOMi85dTCCZ+lRYoildNWaXZJ6u5YtX9+CLPOQd2ENL7Y0atZh1RZAcdFgDKcrT9vlrzYoaQqXqDOCQjTN91JO9hDamfdWxzf5fJPnXctYQqbKdAypwXoMzglU8Rrjo6TiVVrnP5BGds7LCRN47DQu7HiTTwEKQsXM6aa0bWK1qar4tKKuPcVfNc2Wwogz3QFpq+rs2kznm+a/EeZgJ1amJnX2f88MUrfXIHf+4ynkne8A0GVacc76HgIDZoI5xBUa62YmzkfsoT4SgggX9MIIF+TCCBfUwggPdoAMCAQICFDfjuBHfR7UQaogtwq2EhK5NeRvXMA0GCSqGSIb3DQEBCwUAMHUxCzAJBgNVBAYTAlVTMSMwIQYDVQQKExpBZG9iZSBTeXN0ZW1zIEluY29ycG9yYXRlZDEdMBsGA1UECxMUQWRvYmUgVHJ1c3QgU2VydmljZXMxIjAgBgNVBAMTGUFkb2JlIFByb2R1Y3QgU2VydmljZXMgRzMwHhcNMjUwNDMwMjAyODA5WhcNMjUwNzI5MjAyODA5WjB6MQswCQYDVQQGEwJVUzEjMCEGA1UEChMaQWRvYmUgU3lzdGVtcyBJbmNvcnBvcmF0ZWQxRjBEBgNVBAMTPUFkb2JlIFByb2R1Y3QgU2VydmljZXMgRzMgT0NTUCBSZXNwb25kZXIgMjAyNS0wNC0zMFQyMDoyODowOVowggIiMA0GCSqGSIb3DQEBAQUAA4ICDwAwggIKAoICAQDi/P8ee1NNSp4MLYKuU1A4Omp6H12bldipKqbt+TfI6U0xv/rZQFOYmFj/R1nqfx/mpnMe0p0KiA1UftirJVDL1JYiKzJ1dKpxYHa0fHpaLct9dNjTIF/mVypDz7yDG3N58WhmTRnp1u/7u1YDCza2bRsRJUZEbEwUykCcIW3jY1PQ8lgHKsHgZk13CeTY4xzenLFJdgW5W5eDfU9luH2rP1GWtZ4azvb3ls6U6YOpKxJFM+vH+IoDhGw5GOZ22hnzm2ppOTiInPCcRo5AJHbt0K5hUBB9KbrykkhfW8sLLcAJY7vRZcTsEC7ujSDlr+CMi7BkdBib17pDXOuofBNkD/7oGwSjcU6aJ+dyIvcVU818UL36GcofeKaRHpncBAEpVAKxjVlf0shm0HtDTYZsBeWsNeWi+nlwh/QNd3h1nytc3HyDtfcHctibP/JbQ4NjRH5/lIutGVcV30RK851/mclI1o9gxJQXAaYmjMUJfL+w7WjEfigoUkZsZ2AGMsszWw2ztpch0JVJf+Fmy5JN5NJW8DRif5cR1HO2bzVna/Jt9P0qwHOPxkU+6ppNgfWu7RvKwhKzj33+hvC3zdwPcYi+gaY4OrEqniQZUpELVuNoP+1AvXRWarTYoKHGIxTAdXs3PzhBcm4kW5Zx2EbYmQBpHBlv5OOAN/ZVnFYEwQIDAQABo3gwdjAdBgNVHQ4EFgQUwInWh4c8r+kVkHt3cpwO637c0rQwHwYDVR0jBBgwFoAUVyl6Mk3M/uQ1TsAfJHPOc1Or32owDgYDVR0PAQH/BAQDAgeAMBMGA1UdJQQMMAoGCCsGAQUFBwMJMA8GCSsGAQUFBzABBQQCBQAwDQYJKoZIhvcNAQELBQADggIBAG7zq9cReFQVy1Vdjr7CZMVXBdR0tH+g73N/IYOUGqyoxyrpnd9nk7Ds3s4V9HPK6YMq8uSWz2sQxte0tzP9+TN1tI7dox5IrJGzfxeJSA3sXnRxPcSxpOgJKQtq8G7uCQLdy4ddRr+1lOno/Ll2XxZSqyL/FC08oWiDB/bGqFbF11PHbQuSyARDQfAF/I/ZHYptOVhVQgBvs5IXLZL+6+s/QnQGcRFeed3C1vMfiarSkn6fnbH3pYb7HQaw7e/zm3GcbAZC1HswotnbdPE9qwFZzuVJlxbtabc9IuwyLyIHYmxnzaWgggBPB5v/MdNZeP2DuHoELvJiKoGXxuN8O95GV2mDeiljyC8/EYoMnpXrRst5YWxrWtgyKiQ0fS46yOtZf8xUXhujwMMs0zrkTHGp6QVaXtGy+TeMnORZsCmWbnrcgTPRQMT4vp95J/sQI/Y0KhSZqyvnbSRGEECS/OwFjeMEnrfyZQrPejtil5agUN6fIgj9cwpMXiTSsRzfGBrzw5hZuNUTFEvf9Z4c6JPt/zjoaxr/w4Nf2SooPS32snzy9Oba7qpDYKqOl4dv2D4p8TwvihUvfGW4xvBFoEdDESMRfJtGfVv5S/7Xhlz8t7aUZkMnHgmOx18CiWS6ksQfDx/j5MZZ7ROhs4rURbI8jgfiKmNX+iGMv1d35dsFY3BhZFkKmQAAAAAAAAAAAAAAAAAAAAAAAAAAAAAAAAAAAAAAAAAAAAAAAAAAAAAAAAAAAAAAAAAAAAAAAAAAAAAAAAAAAAAAAAAAAAAAAAAAAAAAAAAAAAAAAAAAAAAAAAAAAAAAAAAAAAAAAAAAAAAAAAAAAAAAAAAAAAAAAAAAAAAAAAAAAAAAAAAAAAAAAAAAAAAAAAAAAAAAAAAAAAAAAAAAAAAAAAAAAAAAAAAAAAAAAAAAAAAAAAAAAAAAAAAAAAAAAAAAAAAAAAAAAAAAAAAAAAAAAAAAAAAAAAAAAAAAAAAAAAAAAAAAAAAAAAAAAAAAAAAAAAAAAAAAAAAAAAAAAAAAAAAAAAAAAAAAAAAAAAAAAAAAAAAAAAAAAAAAAAAAAAAAAAAAAAAAAAAAAAAAAAAAAAAAAAAAAAAAAAAAAAAAAAAAAAAAAAAAAAAAAAAAAAAAAAAAAAAAAAAAAAAAAAAAAAAAAAAAAAAAAAAAAAAAAAAAAAAAAAAAAAAAAAAAAAAAAAAAAAAAAAAAAAAAAAAAAAAAAAAAAAAAAAAAAAAAAAAAAAAAAAAAAAAAAAAAAAAAAAAAAAAAAAAAAAAAAAAAAAAAAAAAAAAAAAAAAAAAAAAAAAAAAAAAAAAAAAAAAAAAAAAAAAAAAAAAAAAAAAAAAAAAAAAAAAAAAAAAAAAAAAAAAAAAAAAAAAAAAAAAAAAAAAAAAAAAAAAAAAAAAAAAAAAAAAAAAAAAAAAAAAAAAAAAAAAAAAAAAAAAAAAAAAAAAAAAAAAAAAAAAAAAAAAAAAAAAAAAAAAAAAAAAAAAAAAAAAAAAAAAAAAAAAAAAAAAAAAAAAAAAAAAAAAAAAAAAAAAAAAAAAAAAAAAAAAAAAAAAAAAAAAAAAAAAAAAAAAAAAAAAAAAAAAAAAAAAAAAAAAAAAAAAAAAAAAAAAAAAAAAAAAAAAAAAAAAAAAAAAAAAAAAAAAAAAAAAAAAAAAAAAAAAAAAAAAAAAAAAAAAAAAAAAAAAAAAAAAAAAAAAAAAAAAAAAAAAAAAAAAAAAAAAAAAAAAAAAAAAAAAAAAAAAAAAAAAAAAAAAAAAAAAAAAAAAAAAAAAAAAAAAAAAAAAAAAAAAAAAAAAAAAAAAAAAAAAAAAAAAAAAAAAAAAAAAAAAAAAAAAAAAAAAAAAAAAAAAAAAAAAAAAAAAAAAAAAAAAAAAAAAAAAAAAAAAAAAAAAAAAAAAAAAAAAAAAAAAAAAAAAAAAAAAAAAAAAAAAAAAAAAAAAAAAAAAAAAAAAAAAAAAAAAAAAAAAAAAAAAAAAAAAAAAAAAAAAAAAAAAAAAAAAAAAAAAAAAAAAAAAAAAAAAAAAAAAAAAAAAAAAAAAAAAAAAAAAAAAAAAAAAAAAAAAAAAAAAAAAAAAAAAAAAAAAAAAAAAAAAAAAAAAAAAAAAAAAAAAAAAAAAAAAAAAAAAAAAAAAAAAAAAAAAAAAAAAAAAAAAAAAAAAAAAAAAAAAAAAAAAAAAAAAAAAAAAAAAAAAAAAAAAAAAAAAAAAAAAAAAAAAAAAAAAAAAAAAAAAAAAAAAAAAAAAAAAAAAAAAAAAAAAAAAAAAAAAAAAAAAAAAAAAAAAAAAAAAAAAAAAAAAAAAAAAAAAAAAAAAAAAAAAAAAAAAAAAAAAAAAAAAAAAAAAAAAAAAAAAAAAAAAAAAAAAAAAAAAAAAAAAAAAAAAAAAAAAAAAAAAAAAAAAAAAAAAAAAAAAAAAAAAAAAAAAAAAAAAAAAAAAAAAAAAAAAAAAAAAAAAAAAAAAAAAAAAAAAAAAAAAAAAAAAAAAAAAAAAAAAAAAAAAAAAAAAAAAAAAAAAAAAAAAAAAAAAAAAAAAAAAAAAAAAAAAAAAAAAAAAAAAAAAAAAAAAAAAAAAAAAAAAAAAAAAAAAAAAAAAAAAAAAAAAAAAAAAAAAAAAAAAAAAAAAAAAAAAAAAAAAAAAAAAAAAAAAAAAAAAAAAAAAAAAAAAAAAAAAAAAAAAAAAAAAAAAAAAAAAAAAAAAAAAAAAAAAAAAAAAAAAAAAAAAAAAAAAAAAAAAAAAAAAAAAAAAAAAAAAAAAAAAAAAAAAAAAAAAAAAAAAAAAAAAAAAAAAAAAAAAAAAAAAAAAAAAAAAAAAAAAAAAAAAAAAAAAAAAAAAAAAAAAAAAAAAAAAAAAAAAAAAAAAAAAAAAAAAAAAAAAAAAAAAAAAAAAAAAAAAAAAAAAAAAAAAAAAAAAAAAAAAAAAAAAAAAAAAAAAAAAAAAAAAAAAAAAAAAAAAAAAAAAAAAAAAAAAAAAAAAAAAAAAAAAAAAAAAAAAAAAAAAAAAAAAAAAAAAAAAAAAAAAAAAAAAAAAAAAAAAAAAAAAAAAAAAAAAAAAAAAAAAAAAAAAAAAAAAAAAAAAAAAAAAAAAAAAAAAAAAAAAAAAAAAAAAAAAAAAAAAAAAAAAAAAAAAAAAAAAAAAAAAAAAAAAAAAAAAAAAAAAAAAAAAAAAAAAAAAAAAAAAAAAAAAAAAAAAAAAAAAAAAAAAAAAAAAAAAAAAAAAAAAAAAAAAAAAAAAAAAAAAAAAAAAAAAAAAAAAAAAAAAAAAAAAAAAAAAAAAAAAAAAAAAAAAAAAAAAAAAAAAAAAAAAAAAAAAAAAAAAAAAAAAAAAAAAAAAAAAAAAAAAAAAAAAAAAAAAAAAAAAAAAAAAAAAAAAAAAAAAAAAAAAAAAAAAAAAAAAAAAAAAAAAAAAAAAAAAAAAAAAAAAAAAAAAAAAAAAAAAAAAAAAAAAAAAAAAAAAAAAAAAAAAAAAAAAAAAAAAAAAAAAAAAAAAAAAAAAAAAAAAAAAAAAAAAAAAAAAAAAAAAAAAAAAAAAAAAAAAAAAAAAAAAAAAAAAAAAAAAAAAAAAAAAAAAAAAAAAAAAAAAAAAAAAAAAAAAAAAAAAAAAAAAAAAAAAAAAAAAAAAAAAAAAAAAAAAAAAAAAAAAAAAAAAAAAAAAAAAAAAAAAAAAAAAAAAAAAAAAAAAAAAAAAAAAAAAAAAAAAAAAAAAAAAAAAAAAAAAAAAAAAAAAAAAAAAAAAAAAAAAAAAAAAAAAAAAAAAAAAAAAAAAAAAAAAAAAAAAAAAAAAAAAAAAAAAAAAAAAAAAAAAAAAAAAAAAAAAAAAAAAAAAAAAAAAAAAAAAAAAAAAAAAAAAAAAAAAAAAAAAAAAAAAAAAAAAAAAAAAAAAAAAAAAAAAAAAAAAAAAAAAAAAAAAAAAAAAAAAAAAAAAAAAAAAAAAAAAAAAAAAAAAAAAAAAAAAAAAAAAAAAAAAAAAAAAAAAAAAAAAAAAAAAAAAAAAAAAAAAAAAAAAAAAAAAAAAAAAAAAAAAAAAAAAAAAAAAAAAAAAAAAAAAAAAAAAAAAAAAAAAAAAAAAAAAAAAAAAAAAAAAAAAAAAAAAAAAAAAAAAAAAAAAAAAAAAAAAAAAAAAAAAAAAAAAAAAAAAAAAAAAAAAAAAAAAAAAAAAAAAAAAAAAAAAAAAAAAAAAAAAAAAAAAAAAAAAAAAAAAAAAAAAAAAAAAAAAAAAAAAAAAAAAAAAAAAAAAAAAAAAAAAAAAAAAAAAAAAAAAAAAAAAAAAAAAAAAAAAAAAAAAAAAAAAAAAAD2WQEAQeLddmpYbNPOTEd/wppcouKhr8iy4/I5I2gT/SMtwKyIIHHNtumCdHC9j4Z+YCry+shUsJ0pnCsGVU3b1BmPbspNYtcDIxBJBv6lzBW37w66I2GJ8gLXMmGzUHdH/FHDjwMUjTxlctHKeSiGkFvGUZNL5gSG413l9KsKlKPMtT1Y1COKCgYL0tqH2GIk1yEkDbXzoLpSgxtHnHyQ19FhM8T66lu2YPsJKPN3sQnIRcUDL58A4x7vvkxp2Tp7pvF2RDdPtoLPbTMfbHXbGwWKwmYfMY/JuotawH2RQas7BC6hapGbi36JBxtVeCCCEtf6klTCehmDx++6bZ0Endrw3w==</c2pa:manifest></metadata>
  <defs>
    <style>
      .cls-1 {
        fill: #234494;
      }

      .cls-2 {
        fill: #f05d24;
      }

      .cls-3 {
        fill: #f05d25;
      }

      .cls-4 {
        fill: #224393;
      }

      .cls-5 {
        fill: #f1f2f4;
      }

      .cls-6 {
        fill: #264695;
      }
    </style>
  </defs>
  <path class="cls-5" d="M44.71,22.52c0,12.26-9.94,22.2-22.2,22.2S.32,34.78.32,22.52,10.25.31,22.52.31s22.2,9.94,22.2,22.2Z"/>
  <g>
    <path class="cls-6" d="M33.3,34.41l.02.07.75,1.27v-1.34h.39v1.68h-.63c-.28-.44-.56-.9-.8-1.37v1.37s-.37,0-.37,0v-1.68h.65Z"/>
    <polygon class="cls-6" points="12.62 34.41 13.42 35.78 13.41 34.41 13.79 34.41 13.79 36.08 13.15 36.08 12.37 34.74 12.37 36.08 11.99 36.08 11.99 34.41 12.62 34.41"/>
    <path class="cls-6" d="M22.98,36.08v-1.68h1.02s.19.03.23.03c.26.06.4.21.43.47s.03.95-.22,1.09c-.03.02-.21.08-.23.08h-1.23ZM23.37,35.8h.71s.11-.08.13-.1c.09-.13.1-.78,0-.9-.03-.04-.17-.1-.21-.1h-.63v1.11Z"/>
    <path class="cls-6" d="M18.88,34.41c.32.03,1.24-.08,1.47.12.18.16.19.84-.15.85.1.05.26.13.26.26v.45h-.39v-.4s-.11-.14-.14-.14h-.66v.54h-.39v-1.68ZM19.92,34.69c-.19-.03-.46.02-.66,0v.57h.63c.24,0,.27-.52.03-.57Z"/>
    <path class="cls-1" d="M8.32,34.41c.32.02.65-.02.97,0,.28.02.54.04.6.36.04.23.02.59-.27.61.08.05.26.11.26.23v.48h-.39v-.43s-.12-.12-.14-.12h-.66v.54h-.36v-1.68ZM9.34,34.69c-.2-.03-.45.02-.66,0v.57h.63c.21,0,.21-.25.19-.4-.01-.11-.06-.16-.17-.17Z"/>
    <path class="cls-1" d="M27.39,34.41c.32.02.65-.02.97,0,.13,0,.37.03.48.12.18.15.19.67-.02.81-.03.02-.16.03-.11.08.01.01.23.05.23.17v.5h-.36c-.01-.15.04-.35-.06-.47-.01-.02-.09-.08-.1-.08h-.66v.54h-.36v-1.68ZM27.75,35.26h.63c.28,0,.25-.57.05-.57h-.68v.57Z"/>
    <path class="cls-6" d="M10,36.08l.63-1.65c.06-.06.46,0,.57-.03l.64,1.68h-.39c-.02-.07-.07-.3-.14-.31-.09-.01-.72-.01-.77,0-.08.03-.1.31-.12.31h-.41ZM11.24,35.52l-.32-.83-.3.83h.62Z"/>
    <path class="cls-6" d="M25.41,36.08l.66-1.68h.53s.62,1.68.62,1.68c-.09-.02-.3.03-.36-.01s-.06-.27-.15-.29c-.05-.02-.68-.02-.77,0-.06,0-.12.24-.14.31h-.39ZM26,35.52h.62c-.09-.24-.16-.52-.27-.75-.01-.03,0-.07-.05-.05-.04.01-.23.71-.3.8Z"/>
    <polygon class="cls-6" points="32.4 34.41 32.4 34.69 31.44 34.69 31.44 35.1 32.35 35.1 32.35 35.36 31.44 35.36 31.44 35.8 32.4 35.8 32.4 36.08 31.06 36.08 31.06 34.41 32.4 34.41"/>
    <polygon class="cls-1" points="18.62 34.41 18.62 34.69 17.66 34.69 17.66 35.1 18.57 35.1 18.57 35.36 17.66 35.36 17.66 35.8 18.62 35.8 18.62 36.08 17.3 36.08 17.3 34.41 18.62 34.41"/>
    <polygon class="cls-6" points="17.12 34.41 17.12 34.69 16.22 34.69 16.22 35.13 17.07 35.13 17.07 35.41 16.22 35.41 16.22 36.08 15.83 36.08 15.83 34.41 17.12 34.41"/>
    <polygon class="cls-6" points="8.14 34.41 8.14 34.72 7.57 34.72 7.57 36.08 7.19 36.08 7.19 34.72 6.65 34.72 6.65 34.41 8.14 34.41"/>
    <polygon class="cls-6" points="22.1 34.41 22.1 34.72 21.51 34.72 21.51 36.08 21.15 36.08 21.15 34.72 20.58 34.72 20.58 34.41 22.1 34.41"/>
    <polygon class="cls-6" points="36.14 34.41 36.14 34.72 35.55 34.72 35.55 36.08 35.18 36.08 35.18 34.72 34.62 34.72 34.62 34.41 36.14 34.41"/>
    <path class="cls-6" d="M25.25,34.41v.4c0,.15-.24.23-.36.19-.06-.17.12-.14.15-.22.03-.07-.11-.02-.13-.04-.01-.01,0-.28,0-.34h.34Z"/>
    <g>
      <path class="cls-3" d="M23.46,9.08c.23.23.21.57.02.82-.09.12-.79.8-.79.86l1.33,1c.54.5-.04,1.34-.71.96s-1.3-1.03-1.95-1.43c-.28-.29-.23-.61,0-.91.36-.45.86-.85,1.22-1.3.24-.21.63-.22.86,0Z"/>
      <path class="cls-1" d="M38.41,21.71v.72c-.05.17-.02.37-.03.55,0,.15-.12.41.03.5v.05l-.31.13c.31-2.5-.32-5.04-1.65-7.16-2.43-3.86-7.06-6.23-11.65-5.3l-1.46-.45c2.8-1.2,6.11-.73,8.71.73,3.59,2.01,6.24,5.98,6.33,10.16l.03.06Z"/>
    </g>
    <path class="cls-1" d="M29.77,36.11c-.07,0-.22-.04-.28-.07-.37-.13-.33-.68-.31-1.01.02-.25.06-.49.32-.58.23-.08,1.02-.09,1.23.04.12.07.14.3.13.42h-.39s.08-.21-.22-.23c-.18-.01-.6-.04-.67.16-.03.11-.03.6-.01.73.04.3.6.3.8.21.12-.06.17-.35.09-.35h-.45v-.23h.85v.55s-.07.16-.08.18c-.1.15-.33.12-.49.17-.17-.01-.35.02-.52,0Z"/>
    <path class="cls-6" d="M14.57,36.11c-.07,0-.25-.04-.31-.06-.23-.1-.19-.3-.23-.5h.39s-.04.19.07.26c.09.06.59.06.68-.01.07-.06.09-.24.04-.32-.04-.06-.14-.07-.21-.08-.51-.05-1.03.09-.94-.63.03-.29.28-.33.53-.35.4-.03,1.08-.06.97.52h-.36s0-.14-.05-.2c-.08-.09-.62-.08-.67,0-.04.06-.04.28.02.32.28.17,1.05-.13,1.12.4.03.21,0,.51-.23.59-.07.03-.23.06-.31.07-.13.01-.36.01-.49,0Z"/>
    <g>
      <path class="cls-2" d="M6.7,22.72v-3.26c.11-1.68,1.19-2.91,2.88-3.11.92-.11,1.88.05,2.65.56.17-.06.31-.18.47-.25.87-.41,2.06-.44,2.97-.14.06.02.45.17.47.19.03.04-.14.28-.17.35-.23.56-.06,1.02.2,1.52l1.34,2.38s-.02.08-.03.11c-.23.5-.9,1.06-.61,1.65h-1.7v-3.16c0-.13-.08-.45-.14-.58-.15-.33-.5-.53-.86-.42-.55.18-.6.76-.63,1.26-.04.96.04,1.95,0,2.9h-2.61v-3.16c0-.13-.08-.45-.14-.58-.15-.33-.5-.53-.86-.42-.55.18-.6.76-.63,1.26-.04.96.04,1.95,0,2.9h-2.61Z"/>
      <g>
        <path class="cls-3" d="M29.66,22.38l1.82-5.34c.03-.11.03-.23-.06-.31l-3.15-1.1c-.09-.03-.21,0-.27.07s-.23.58-.27.71c-.52,1.49-1.01,2.99-1.52,4.48-.05-.04-.11-.07-.15-.12-.41-.36-1.39-1.18-1.6-1.63-.28-.62-.16-1.23.26-1.75.81-1.01,1.87-1.94,2.7-2.96.62-.57,1.56-.58,2.19-.02.89.93,2.05,1.74,2.93,2.67.53.56.61,1.45.14,2.07-.91.96-1.76,2.03-2.68,2.97-.03.03-.29.29-.32.26Z"/>
        <path class="cls-3" d="M27.54,21.59c.06-.02.58.16.61.23.02.05-.09.45-.14.48-.07.04-.3-.03-.37-.07-.03-.02-.26-.23-.26-.25-.02-.05.09-.36.16-.38Z"/>
        <path class="cls-3" d="M28.46,22.03c.05-.06.4.06.43.11.04.05-.05.32-.08.34-.05.04-.4-.07-.43-.12-.03-.05.04-.29.07-.33Z"/>
        <path class="cls-3" d="M27.13,21.71l-.09-.02-.27-.28c.17.07.46.06.36.31Z"/>
        <g>
          <rect class="cls-3" x="26.46" y="17.7" width="4.55" height="3.19" transform="translate(1.17 40.23) rotate(-71.11)"/>
          <path class="cls-3" d="M29.24,16.55s.62.19.67.23c.1.07.06.12-.05.1-.05,0-.55-.18-.59-.21-.06-.03-.11-.1-.03-.12Z"/>
          <circle class="cls-3" cx="28.28" cy="16.24" r=".11"/>
          <circle class="cls-3" cx="28.58" cy="16.35" r=".1"/>
          <circle class="cls-3" cx="28.85" cy="16.45" r=".07"/>
          <path class="cls-3" d="M29.12,16.5s-.05.1-.08.08c-.04-.04.03-.12.08-.08Z"/>
        </g>
      </g>
    </g>
    <g>
      <g>
        <path class="cls-3" d="M33.4,31.52c.59-.44,1.17-.96,1.65-1.52.17.55.68,1.08.24,1.65-.16.21-.57.38-.83.43-.44.1-.91-.12-1.06-.56Z"/>
        <path class="cls-3" d="M34.64,29.07c-.49.64-.98,1.15-1.6,1.65l-.35-.77h-2.6s-.06.04-.06.04l-.59,1.65c-.47,1.04-2.34.24-1.87-.84l2.67-7.36,1.58.11c.24.05.4.19.56.37.79,1.7,1.5,3.44,2.27,5.15ZM32.11,28.6l-.88-1.96-.7,1.96h1.57Z"/>
      </g>
      <path class="cls-1" d="M18.49,30.2c.28.4.84.82,1.26,1.1,3.98,2.76,9.57,2.44,13.3-.59.62-.51,1.11-1.01,1.6-1.65.37-.48.7-.99.98-1.54l.83-.58-1.62.43c-.9.13-1.2-1.03-.31-1.34.84-.29,1.79-.44,2.64-.71.43-.03.69.23.78.64.11.53.26,1.44.29,1.98.03.39-.12.78-.56.84-.95.13-.81-1.02-.95-1.62-.39,1.04-.94,2-1.66,2.84-.48.56-1.06,1.08-1.65,1.52-2.45,1.82-5.69,2.5-8.7,2.06-2.33-.34-4.52-1.39-6.21-3.01v.45c0,.43-.53.99-.97.99h-1.59c.02-2.24-.03-4.49,0-6.73l.08.68c.26,1.66,1.16,3.02,2.33,4.17.04.04.14.07.14.08Z"/>
      <g>
        <g>
          <path class="cls-6" d="M7.94,31.98c-.27.05-.98.06-1.25.03-.03,0-.06,0-.06-.03h1.32Z"/>
          <path class="cls-4" d="M6.62,31.98v-8.41c.58-.04,1.15-.06,1.72-.02l3.59,4.52.1.09v-3.99s.08-.21.1-.24c.36-.65,1.26-.34,1.86-.39v7.83s-.13.28-.17.32c-.31.4-1.14.42-1.51.11l-3.72-4.53v4.04c0,.33-.37.61-.67.66h-1.32Z"/>
        </g>
        <path class="cls-3" d="M24.81,25.12v5.92c0,.36-.58.94-.94.94h-1.59v-6.86h-1.97c-.17,0-.48-.31-.48-.48v-1.12h6.85c.21,0,.45.19.52.38.1.25.09.75-.07.98-.05.07-.26.25-.35.25h-1.97Z"/>
      </g>
    </g>
    <g>
      <path class="cls-4" d="M19.57,18.33s.05,0,.06-.03c.33-.45.58-.96.91-1.41.99-1.36,3.21-.12,2.37,1.41l-2.86,4.41h-2.51c-.3-.03-.5-.13-.39-.46.13-.37.54-.83.71-1.2l.02-.08c-.42-.82-.93-1.58-1.35-2.4-.25-.49-.49-.93-.22-1.49.34-.69,1.2-.96,1.9-.66.53.23.98,1.31,1.31,1.81.02.03.03.08.03.09Z"/>
      <path class="cls-3" d="M18.49,30.2s-.1-.04-.14-.08c-1.17-1.16-2.06-2.52-2.33-4.17l-.08-.68c0-.49-.07-.95.25-1.37.14-.17.5-.39.72-.39h1.55l.04,6.68Z"/>
    </g>
  </g>
</svg>