<?xml version="1.0" encoding="UTF-8"?>
<svg id="Calque_1" data-name="Calque 1" xmlns="http://www.w3.org/2000/svg" viewBox="0 0 45.03 45.03">
  <defs>
    <style>
      .cls-1 {
        fill: #fff;
      }

      .cls-2 {
        fill: #f1f2f4;
      }

      .cls-3 {
        fill: #ea3124;
      }
    </style>
  </defs>
  <path class="cls-2" d="M44.71,22.52c0,12.26-9.94,22.2-22.2,22.2S.32,34.78.32,22.52,10.25.31,22.52.31s22.2,9.94,22.2,22.2Z"/>
  <g id="g14258">
    <path id="path14254" class="cls-3" d="M34.88,22.51c0,6.83-5.54,12.37-12.37,12.37-6.83,0-12.37-5.54-12.37-12.37s5.54-12.37,12.37-12.37,12.37,5.54,12.37,12.37"/>
    <path id="path14256" class="cls-1" d="M22.62,29.85c-3.62.01-7.38-3.07-7.4-8.04-.01-3.28,1.76-6.43,4.02-8.31,2.21-1.83,5.23-3,7.97-3.01.35,0,.72.03.95.1-2.39.5-4.3,2.73-4.3,5.25,0,.08.01.17.02.21,4.01.97,5.83,3.39,5.84,6.74.01,3.35-2.63,7.02-7.1,7.03"/>
  </g>
</svg>