<?xml version="1.0" encoding="UTF-8"?>
<svg id="Calque_1" data-name="Calque 1" xmlns="http://www.w3.org/2000/svg" viewBox="0 0 54 54">
  <defs>
    <style>
      .cls-1 {
        fill: #f6fcf8;
      }

      .cls-1, .cls-2, .cls-3, .cls-4, .cls-5 {
        stroke-width: 0px;
      }

      .cls-2 {
        fill: #794a92;
      }

      .cls-3 {
        fill: #29af4c;
      }

      .cls-4 {
        fill: #effaf2;
      }

      .cls-5 {
        fill: #fafdfb;
      }
    </style>
  </defs>
  <path class="cls-4" d="m5.4,15.08c-.17.23-.36.43-.59.6,0-.48.11-.59.59-.6Z"/>
  <g>
    <path class="cls-3" d="m49.2,27c0,12.26-9.94,22.2-22.2,22.2S4.8,39.26,4.8,27,14.74,4.8,27,4.8s22.2,9.94,22.2,22.2Z"/>
    <path class="cls-5" d="m12.82,30.1c.77,0,1.49,0,2.21,0,.16,0,.15-.08.13-.2-.06-.44-.14-.88-.12-1.33.05-1.75,1.35-3.24,3.08-3.48.78-.11,1.47.13,2.08.61.07.05.13.11.22.18.01-.05.02-.08.03-.11.08-.38.13-.43.53-.43.34,0,.68,0,1.03,0,.46,0,.48,0,.57.48.15-.12.28-.24.42-.34.86-.58,2.4-.64,3.26.54.18.24.19.24.39,0,1.06-1.23,2.82-1.27,3.94-.11.45.47.64,1.05.65,1.68.01,1.47,0,2.95,0,4.42,0,.37-.08.44-.46.44-.41,0-.82,0-1.23,0-.51,0-.51,0-.51-.52,0-1.16,0-2.31,0-3.47,0-.19-.02-.38-.06-.56-.12-.49-.42-.71-.96-.7-.51.01-.88.3-.98.77-.07.3-.05.61-.05.92,0,.97,0,1.94,0,2.9,0,.53-.12.64-.65.65-.39,0-.77,0-1.16,0-.37,0-.41-.04-.42-.41,0-.94,0-1.88,0-2.83,0-.38.01-.75-.03-1.13-.07-.57-.41-.93-.91-.93-.59,0-1,.35-1.04.94-.03.46-.02.92-.03,1.39,0,.8,0,1.61,0,2.41,0,.44-.09.52-.53.51-.37,0-.74-.01-1.1,0-.51.01-.51.02-.62-.48-.23.15-.45.32-.69.43-1.23.54-2.37.3-3.44-.44-.13-.09-.24-.26-.36-.27-.13,0-.16.21-.26.32-.33.38-.78.45-1.24.44-1.42-.03-2.84,0-4.26,0-.54,0-.61-.08-.62-.63-.02-.84.33-1.54.8-2.2.97-1.37,1.86-2.79,2.78-4.19.12-.19,0-.2-.12-.21-.55-.01-1.1-.02-1.64-.02-.41,0-.79-.11-1.02-.49-.29-.47-.25-.98-.13-1.49.04-.17.2-.2.35-.2.39,0,.77,0,1.16,0,1.33,0,2.66,0,3.98,0,.42,0,.43.05.47.45.13,1.23-.36,2.22-1.07,3.17-.78,1.05-1.48,2.16-2.21,3.24-.04.06-.07.13-.13.24Zm6.02-2.88c-.96,0-1.63.71-1.62,1.7,0,1.04.69,1.7,1.74,1.69.91,0,1.58-.77,1.58-1.79,0-.89-.76-1.6-1.69-1.59Z"/>
    <path class="cls-5" d="m29.38,7.01s.14-.01.05.06c-.08.07-.19.11-.28.16-.02,0-.03,0-.04.02,0,0-.02,0-.02,0-.3.17-.48.44-.59.75-.19.51-.16,1.04-.08,1.57.18,1.09.49,2.15.77,3.21.12.44.18.82-.23,1.14,0,0,0,.02,0,.02-.88.96-1.78,1.89-2.76,2.74-.96.84-1.96,1.63-3.04,2.31-.08.05-.16.2-.3.03-.04-.05-.14.04-.2.08-.51.27-1.02.55-1.61.64-.74.11-1.23-.38-1.11-1.11.05-.31.14-.6.3-.87.1-.01.09-.08.09-.15,0,0,0,0,0,0,.13.02.1.12.1.2,0,.19,0,.39,0,.58,0,.08,0,.14.07.21.2.22.74.21.96-.01,0,0,0,0,0,0,.19-.02.42.07.51-.21h0s.02-.01.02-.01c.27.04.46-.13.64-.29.07-.07.09-.13-.03-.16,0-.04,0-.07-.01-.11-.04-.12.09-.28-.1-.36-.24-.92-.49-1.85-.73-2.77-.21-.84-.5-1.66-.58-2.52-.09-.9-.04-1.78.47-2.57.17-.26.4-.47.64-.66,1.2-.6,2.46-.99,3.76-1.31,1.1-.27,2.21-.44,3.32-.61Zm-4.73,6.64c-.04-.13.09-.31-.09-.41,0-.02,0-.04,0-.05,0-.28.14,0,.2-.05.06.08.11.17.17.25.06.09.08.22.26.18.16-.04.13-.16.14-.26.03-.29.06-.58.09-.88.11.27.19.54.25.81.03.11.03.21.2.17.17-.04.14-.14.12-.25-.1-.42-.2-.85-.3-1.27-.02-.1-.06-.13-.17-.12-.24.02-.34.13-.34.37,0,.29-.03.58-.1.92-.21-.33-.4-.61-.57-.89-.13-.22-.29-.08-.43-.05-.14.03-.06.15-.04.23.09.39.18.78.27,1.17.06.27.1.28.35.11Zm2.08-1.11s-.05,0-.08.01c-.13-.28-.27-.56-.4-.85-.07-.17-.19-.1-.3-.07-.16.06-.05.15-.02.22.18.37.38.73.55,1.1.08.16.15.23.34.19.21-.04.17-.18.17-.31,0-.27,0-.54,0-.82.21.27.36.54.48.82.07.15.17.1.27.08.09-.01.18-.03.18-.17,0-.48,0-.96,0-1.44,0-.12-.05-.15-.16-.12-.13.03-.17.1-.17.23.01.3,0,.61,0,.91-.19-.26-.33-.52-.46-.79-.05-.11-.1-.18-.25-.15-.15.03-.19.1-.19.25.01.3,0,.59,0,.89Zm-3.44.05c.05.11-.02.18-.05.25-.13.32-.27.63-.39.95-.08.2,0,.31.17.27.32-.07.63-.15.95-.22.09-.02.13-.07.11-.16-.02-.09-.06-.16-.18-.13-.12.03-.25.07-.37.09-.07.01-.16.08-.22.02-.07-.07,0-.16.04-.23.12-.29.24-.58.37-.87.04-.1.06-.21,0-.3-.07-.1-.17-.03-.26,0-.26.06-.51.12-.77.18-.1.02-.18.04-.14.18.03.13.11.13.21.11.18-.04.36-.09.54-.13Z"/>
    <path class="cls-5" d="m40.4,29.55c-1.01.03-1.79-.02-2.57.04-.27.02-.29.06-.18.31.23.53.91.91,1.54.85.36-.03.68-.14.93-.43.13-.15.31-.21.51-.21.55,0,1.1.02,1.64.02.17,0,.24.03.15.22-.54,1.18-1.38,2-2.69,2.26-1.84.36-3.68-.74-4.27-2.55-.67-2.04.63-4.38,2.7-4.87,2.2-.52,4.41,1.08,4.57,3.33.02.21.02.43.03.64,0,.25-.11.39-.37.39-.74,0-1.49,0-2,0Zm-1.35-1.5c.42,0,.84,0,1.26,0,.15,0,.17-.04.11-.18-.21-.51-.93-1.03-1.71-.83-.46.12-.84.32-1.01.8-.05.15-.03.21.15.21.4,0,.8,0,1.2,0Z"/>
    <path class="cls-1" d="m32.12,9.54s.03,0,.04.01c.02.12.1.1.18.09.36.17.46.48.48.84.03.54-.16,1.02-.4,1.49-.46.91-1.1,1.69-1.77,2.44-.13.14-.14.26-.1.44.44,1.71.88,3.43,1.32,5.14.16.63-.1,1.05-.74,1.21-1.86.47-3.72.95-5.59,1.42-.55.14-1-.11-1.15-.65-.25-.9-.47-1.8-.71-2.7-.04-.14,0-.23.12-.3.11-.07.21-.14.32-.21.24-.15.25-.14.32.14.16.63.33,1.26.48,1.88.04.17.1.23.29.18,1.79-.47,3.59-.94,5.38-1.4.17-.04.21-.11.16-.27-.33-1.26-.64-2.53-.98-3.79-.1-.37-.2-.74-.31-1.11-.04-.13,0-.21.09-.31.77-.77,1.51-1.56,2.03-2.53.13-.25.23-.52.29-.79.13-.6-.08-.95-.66-1.09-.15-.12-.03-.12.06-.12.28,0,.56,0,.84,0Z"/>
    <path class="cls-5" d="m34.62,29.77c0,.74,0,1.47,0,2.21,0,.39-.1.49-.49.49-.26,0-.53.02-.79-.05-.56-.14-.84-.45-.93-1.02-.07-.43-.04-.85-.02-1.28.03-.93-.03-1.87-.02-2.8,0-.18-.1-.24-.25-.26-.14-.02-.29-.02-.44-.02-.22,0-.3-.13-.31-.33,0-.27,0-.55,0-.82,0-.36.08-.44.45-.5q.55-.08.55-.64c0-.19,0-.38,0-.57.02-.67.46-1.12,1.13-1.15.24-.01.48-.01.72-.01.29,0,.35.06.35.35,0,.5,0,.99,0,1.49,0,.43.05.47.47.48.45,0,.56.11.56.56,0,.27,0,.55,0,.82,0,.2-.07.32-.29.33-.8.02-.67.16-.67.77,0,.65,0,1.3,0,1.95Z"/>
    <path class="cls-5" d="m45.3,23.37c.06.56.01,1.11,0,1.67,0,2.29,0,4.59-.02,6.88,0,.09,0,.19,0,.28-.02.18-.11.27-.31.27-.52,0-1.04,0-1.57,0-.21,0-.32-.09-.32-.31,0-.11,0-.22,0-.33,0-2.51,0-5.01,0-7.52,0-.76.36-1.17,1.12-1.27.25-.03.49-.04.74-.01.08.15.24.22.35.35Z"/>
    <path class="cls-1" d="m29.26,36.76c.28-.81.54-1.57.79-2.33.05-.16.12-.25.3-.22.23.03.52-.09.67.05.15.14.04.44.05.67,0,.85,0,1.69,0,2.54,0,.18-.04.25-.24.25-.46-.01-.46,0-.46-.46,0-.66,0-1.32-.03-1.98-.12.34-.23.67-.35,1.01-.14.41-.28.83-.41,1.24-.04.15-.11.22-.27.2-.16-.03-.35.08-.43-.19-.2-.67-.44-1.33-.66-1.99-.03-.09-.07-.18-.14-.27,0,.73,0,1.46,0,2.19,0,.19-.04.27-.25.26-.38-.02-.38,0-.38-.38,0-.97,0-1.93,0-2.9,0-.16.04-.22.21-.22.73,0,.74-.02.96.67.2.62.46,1.21.62,1.89Z"/>
    <path class="cls-1" d="m12.47,36.72c.27-.8.54-1.58.8-2.35.04-.12.1-.16.22-.16.25.01.56-.08.72.04.17.13.05.46.06.71,0,.83,0,1.66,0,2.49,0,.19-.04.27-.25.26-.44-.02-.44,0-.44-.45,0-.66,0-1.31,0-1.98-.1.06-.1.16-.13.25-.22.65-.43,1.3-.64,1.95-.05.15-.09.26-.29.24-.18-.02-.35.04-.43-.23-.21-.7-.46-1.39-.69-2.09-.02-.05-.04-.09-.09-.13,0,.73,0,1.46,0,2.19,0,.16,0,.31-.22.26-.16-.04-.43.15-.42-.24.02-1,.01-2,0-3,0-.21.06-.26.26-.25.68,0,.68,0,.9.64.21.62.43,1.23.65,1.87Z"/>
    <path class="cls-4" d="m18.42,37.33s-.03.07-.04.11c-.06.25-.27.35-.51.26-.13-.05-.08-.17-.09-.27,0-.79,0-1.58,0-2.36,0-.23.01-.46,0-.69,0-.14.05-.17.17-.17.52-.02.52-.02.53.5,0,.24,0,.48,0,.72,0,.01.02.03.04.06.27-.28.59-.39.97-.34.43.06.72.37.81.88.06.3.06.61-.02.92-.1.39-.3.69-.72.78-.42.1-.78-.01-1.06-.34-.02-.02-.03-.04-.05-.06,0,0-.01,0-.04,0Zm1.21-.92c0-.08,0-.19-.03-.3-.06-.29-.24-.45-.5-.46-.26-.01-.45.13-.55.41-.09.28-.08.55.02.83.08.21.23.33.46.35.22.02.38-.07.5-.25.11-.17.1-.36.11-.58Z"/>
    <path class="cls-4" d="m32.85,35.14c.81,0,1.3.5,1.3,1.32,0,.81-.5,1.31-1.32,1.3-.79,0-1.28-.51-1.28-1.32,0-.79.51-1.3,1.29-1.3Zm.58,1.25c0-.06-.02-.19-.04-.31-.06-.26-.26-.42-.51-.42-.26,0-.44.12-.53.39-.1.28-.09.56,0,.83.09.29.35.43.64.36.31-.08.44-.3.45-.84Z"/>
    <path class="cls-4" d="m14.76,36.46c0-.86.49-1.33,1.35-1.32.76,0,1.25.53,1.24,1.33,0,.8-.52,1.3-1.33,1.29-.78,0-1.27-.51-1.26-1.3Zm.72,0c0,.08,0,.2.03.31.05.28.25.46.52.47.27.01.47-.13.55-.4.07-.25.08-.5,0-.76-.09-.3-.3-.46-.58-.43-.28.03-.47.23-.5.53,0,.08,0,.15-.02.27Z"/>
    <path class="cls-4" d="m35.18,35.74c.26-.42.57-.62,1.01-.6.41.02.72.26.78.67.09.59.02,1.18.04,1.77,0,.1-.04.14-.14.13,0,0-.02,0-.03,0-.64-.02-.52.13-.53-.51,0-.33,0-.67,0-1-.01-.33-.14-.5-.37-.54-.23-.04-.47.13-.59.4-.06.14-.08.28-.08.43,0,.34,0,.68,0,1.03,0,.16-.05.2-.21.2-.51,0-.51,0-.51-.49,0-.59,0-1.18,0-1.77,0-.1-.05-.25.14-.24.15.01.36-.09.4.18.01.09.03.18.06.35Z"/>
    <path class="cls-4" d="m40.04,35.22s.02-.02.03-.02c.66-.07.66-.07.87.54.14.41.27.82.43,1.3.17-.55.32-1.03.45-1.52.07-.25.16-.4.45-.34.02,0,.05,0,.08,0,.3,0,.3,0,.2.28-.28.77-.56,1.54-.85,2.31-.09.24-.19.48-.39.66-.29.27-.78.27-1.08.02-.15-.12-.02-.21,0-.32.03-.12.11-.09.2-.06.18.08.35.08.49-.09.14-.17.12-.33.04-.52-.3-.71-.59-1.42-.89-2.13-.02-.04-.02-.08-.03-.12Z"/>
    <path class="cls-2" d="m28.97,13.95s0-.02,0-.02c.41-.31.35-.7.23-1.14-.28-1.06-.59-2.12-.77-3.21-.09-.53-.11-1.06.08-1.57.11-.31.29-.58.59-.75-.15.49-.15.99-.13,1.49.03.55.19,1.07.33,1.59.09.34.18.67.26,1.01.06.26.11.53.22.77.14.29.09.6.1.9,0,.08-.07.11-.11.16-.23.28-.55.48-.72.81l-.09-.04Z"/>
    <path class="cls-4" d="m39.04,36.58c-.25,0-.5,0-.74,0-.12,0-.14.04-.13.15.02.24.2.48.44.54.25.07.51.03.63-.21.14-.27.3-.18.49-.11.12.05.14.1.07.2-.16.27-.37.47-.68.55-.99.26-1.73-.37-1.65-1.39.07-.92.81-1.41,1.69-1.13.51.16.86.74.78,1.28-.02.12-.09.11-.16.11-.25,0-.5,0-.74,0h0Zm-.32-.36h0c.14,0,.27,0,.41,0,.13,0,.16-.05.14-.17-.04-.25-.2-.41-.45-.45-.26-.03-.49.1-.59.34-.1.23-.08.27.17.27.11,0,.22,0,.33,0Z"/>
    <path class="cls-4" d="m24.88,36.58c-.24,0-.48,0-.72,0-.13,0-.15.05-.14.17.04.26.21.47.45.53.26.07.51-.02.67-.25.09-.12.44-.13.53-.02.07.08,0,.13-.03.18-.25.45-.75.66-1.3.56-.66-.12-1-.55-1.02-1.27-.03-1.05.95-1.67,1.89-1.2.39.2.66.79.57,1.2-.03.12-.1.1-.17.1-.25,0-.5,0-.75,0Zm-.31-.36s0,0,0,0c.14,0,.27,0,.41,0,.15,0,.17-.06.14-.19-.06-.26-.23-.41-.48-.43-.27-.01-.51.14-.6.4-.05.15-.03.24.17.22.12-.01.24,0,.36,0Z"/>
    <path class="cls-2" d="m29.38,7.01c-1.11.17-2.23.35-3.32.61-1.3.32-2.56.72-3.76,1.31.22-.34.49-.6.89-.74.25-.08.47-.22.72-.32.37-.14.74-.25,1.11-.39.3-.12.62-.2.93-.27.37-.07.72-.21,1.1-.26.39-.05.77-.17,1.15-.26.02,0,.03-.02.05-.02.44.03.85-.17,1.28-.13.06,0,.15-.02.17.07.02.1-.05.12-.13.15-.09.04-.17.11-.17.23Z"/>
    <path class="cls-1" d="m22.86,35.96c0,.5,0,1.01,0,1.51,0,.17-.03.24-.22.24-.47,0-.47,0-.47-.47,0-.91,0-1.83,0-2.74,0-.21.04-.3.28-.29.41.02.42,0,.42.42,0,.44,0,.89,0,1.33h0Z"/>
    <path class="cls-4" d="m20.8,36.45c0-.33,0-.67,0-1,0-.17.04-.24.23-.24.48,0,.48,0,.48.49,0,.59,0,1.18,0,1.77,0,.18-.04.25-.24.25-.47-.01-.47,0-.47-.47,0-.26,0-.53,0-.79h0Z"/>
    <path class="cls-4" d="m21.16,34.84c-.12-.04-.29.06-.33-.06-.05-.15-.02-.33-.01-.5,0-.05.05-.06.1-.06.07,0,.14,0,.2,0,.42,0,.49.09.4.51-.05.22-.24.05-.35.12Z"/>
    <path class="cls-4" d="m21.47,18.59c-.23.23-.76.23-.96.01-.06-.06-.07-.13-.07-.21,0-.19,0-.39,0-.58,0-.08.03-.18-.1-.2.07-.19.21-.35.32-.51.07-.1.16-.19.25-.28-.15.37-.33.73-.39,1.12-.01.09-.03.19-.02.28.01.34.2.49.53.45.15-.02.3-.06.45-.09Z"/>
    <path class="cls-4" d="m32.12,9.54c-.28,0-.56,0-.84,0-.09,0-.21,0-.06.12-.17,0-.34-.03-.51,0,.45-.2.92-.31,1.41-.13Z"/>
    <path class="cls-4" d="m22.61,17.92c.12.03.1.09.03.16-.18.17-.36.33-.64.29.15-.09.31-.18.46-.27.08-.04.14-.09.14-.19Z"/>
    <path class="cls-4" d="m21.98,18.39c-.09.27-.32.19-.51.21.16-.09.33-.16.51-.21Z"/>
    <path class="cls-4" d="m45.3,23.37c-.11-.12-.27-.19-.35-.35.22.01.34.13.35.35Z"/>
    <path class="cls-4" d="m22.5,17.46c.19.08.06.24.1.36-.07-.11-.1-.23-.1-.36Z"/>
    <path class="cls-4" d="m32.33,9.64c-.08,0-.16.03-.18-.09.08,0,.13.03.18.09Z"/>
    <path class="cls-4" d="m20.33,17.62c0,.07,0,.14-.09.15,0-.07.04-.11.09-.15Z"/>
    <polygon class="cls-4" points="20.98 16.68 20.97 16.68 20.97 16.71 20.98 16.68"/>
    <path class="cls-2" d="m29.12,7.26s.02-.02.04-.02c0,.03-.01.03-.04.02Z"/>
    <path class="cls-3" d="m18.84,27.22c.93,0,1.69.71,1.69,1.59,0,1.02-.67,1.79-1.58,1.79-1.05.01-1.73-.65-1.74-1.69,0-.99.67-1.69,1.62-1.7Z"/>
    <path class="cls-3" d="m26.73,12.55c0-.3,0-.59,0-.89,0-.15.04-.21.19-.25.15-.03.2.04.25.15.13.27.27.53.46.79,0-.3,0-.61,0-.91,0-.13.04-.2.17-.23.11-.02.16,0,.16.12,0,.48-.01.96,0,1.44,0,.14-.08.15-.18.17-.1.01-.2.07-.27-.08-.13-.28-.28-.55-.48-.82,0,.27,0,.54,0,.82,0,.13.04.26-.17.31-.2.04-.27-.03-.34-.19-.17-.37-.37-.73-.55-1.1-.03-.07-.14-.16.02-.22.11-.04.22-.1.3.07.13.29.27.56.4.85.03,0,.05,0,.08-.01Z"/>
    <path class="cls-3" d="m24.55,13.19s0,.04,0,.05c0,.14.04.28.09.41-.25.17-.29.15-.35-.11-.09-.39-.18-.78-.27-1.17-.02-.08-.1-.2.04-.23.14-.03.3-.17.43.05.17.29.35.56.57.89.07-.34.1-.63.1-.92,0-.24.1-.35.34-.37.11,0,.15.02.17.12.1.42.2.85.3,1.27.03.11.05.21-.12.25-.18.04-.17-.06-.2-.17-.06-.27-.14-.54-.25-.81-.03.29-.05.59-.09.88-.01.1.02.22-.14.26-.18.04-.2-.09-.26-.18-.06-.08-.11-.17-.17-.25-.09-.19-.2-.36-.37-.59.08.26.07.46.17.63Z"/>
    <path class="cls-3" d="m23.29,12.59c-.18.04-.36.09-.54.13-.1.02-.18.02-.21-.11-.03-.14.05-.16.14-.18.26-.06.51-.12.77-.18.09-.02.19-.09.26,0,.06.09.05.2,0,.3-.12.29-.25.58-.37.87-.03.08-.1.16-.04.23.06.06.14,0,.22-.02.13-.02.25-.06.37-.09.11-.03.15.03.18.13.02.1-.02.14-.11.16-.32.07-.63.15-.95.22-.17.04-.24-.07-.17-.27.12-.32.26-.63.39-.95.03-.07.1-.14.05-.25Z"/>
    <path class="cls-4" d="m24.55,13.19c-.1-.18-.09-.37-.17-.63.17.23.29.4.37.59-.06.04-.2-.23-.2.05Z"/>
    <path class="cls-4" d="m24.65,13.65c-.05-.13-.09-.26-.09-.41.18.1.06.27.09.41Z"/>
    <path class="cls-3" d="m39.05,28.05c-.4,0-.8,0-1.2,0-.18,0-.2-.06-.15-.21.17-.48.55-.68,1.01-.8.78-.2,1.49.32,1.71.83.06.13.04.18-.11.18-.42,0-.84,0-1.26,0Z"/>
    <path class="cls-3" d="m19.63,36.41c0,.22,0,.41-.11.58-.12.18-.28.27-.5.25-.22-.02-.38-.14-.46-.35-.1-.27-.11-.55-.02-.83.09-.28.29-.42.55-.41.26.01.44.17.5.46.02.11.02.22.03.3Z"/>
    <path class="cls-3" d="m33.43,36.38c0,.53-.14.76-.45.84-.29.07-.55-.07-.64-.36-.09-.27-.1-.55,0-.83.09-.27.27-.4.53-.39.25,0,.45.16.51.42.03.12.04.25.04.31Z"/>
    <path class="cls-3" d="m15.48,36.45c0-.12,0-.2.02-.27.03-.3.22-.5.5-.53.28-.03.49.12.58.43.08.25.07.51,0,.76-.08.27-.28.41-.55.4-.27-.01-.47-.19-.52-.47-.02-.12-.02-.24-.03-.31Z"/>
    <path class="cls-3" d="m38.71,36.21c-.11,0-.22,0-.33,0-.24,0-.26-.04-.17-.27.1-.24.34-.38.59-.34.25.03.41.2.45.45.02.12,0,.18-.14.17-.14,0-.27,0-.41,0h0Z"/>
    <path class="cls-3" d="m24.57,36.21c-.12,0-.24-.01-.36,0-.2.02-.21-.07-.17-.22.08-.25.32-.41.6-.4.24.01.41.17.48.43.03.13.02.2-.14.19-.14,0-.27,0-.41,0,0,0,0,0,0,0Z"/>
  </g>
</svg>